<?xml version="1.0" encoding="UTF-8" standalone="no"?>
<!-- Created with Inkscape (http://www.inkscape.org/) -->

<svg
   version="1.1"
   id="svg90"
   width="85.151123"
   height="199.31073"
   viewBox="0 0 85.15112 199.31073"
   sodipodi:docname="barber-icon.svg"
   inkscape:version="1.2.2 (b0a8486, 2022-12-01)"
   xmlns:inkscape="http://www.inkscape.org/namespaces/inkscape"
   xmlns:sodipodi="http://sodipodi.sourceforge.net/DTD/sodipodi-0.dtd"
   xmlns="http://www.w3.org/2000/svg"
   xmlns:svg="http://www.w3.org/2000/svg">
  <defs
     id="defs94" />
  <sodipodi:namedview
     id="namedview92"
     pagecolor="#ffffff"
     bordercolor="#000000"
     borderopacity="0.25"
     inkscape:showpageshadow="2"
     inkscape:pageopacity="0.0"
     inkscape:pagecheckerboard="0"
     inkscape:deskcolor="#d1d1d1"
     showgrid="false"
     inkscape:zoom="2.10022"
     inkscape:cx="17.379131"
     inkscape:cy="119.03515"
     inkscape:window-width="1858"
     inkscape:window-height="1052"
     inkscape:window-x="0"
     inkscape:window-y="0"
     inkscape:window-maximized="1"
     inkscape:current-layer="g96" />
  <g
     inkscape:groupmode="layer"
     inkscape:label="Image"
     id="g96"
     transform="translate(-284.18171,-76.521741)">
    <path
       style="fill:#000000;fill-opacity:1;stroke:#000000;stroke-width:0.377953;stroke-opacity:1"
       d="m 321.97008,266.83308 c 0,0 -1.94899,5.16151 -0.54533,6.21425 1.40366,1.05275 3.50916,3.15824 5.96556,2.45641 2.45641,-0.70183 4.91282,-2.10549 4.91282,-3.86007 0,-1.75458 0.0113,-3.97493 -0.6905,-4.50131 -0.33796,-0.25347 -2.49551,0.1199 -4.7361,0.10397 -2.41233,-0.0172 -4.90645,-0.41325 -4.90645,-0.41325 z"
       id="path1467-1"
       sodipodi:nodetypes="csssssc" />
    <path
       style="fill:#fefbfb;fill-opacity:1;stroke:#000000;stroke-width:0.377953;stroke-opacity:1"
       d="m 293.71938,125.57486 -0.11232,101.08889 c 0,0 22.23955,2.6957 31.78684,2.47106 9.54728,-0.22464 34.37022,-2.24642 34.37022,-2.24642 l -0.22464,-101.76281 c 0,0 -36.72896,-2.58338 -44.36679,-1.79714 -7.63783,0.78625 -21.45331,2.24642 -21.45331,2.24642 z"
       id="path2849"
       inkscape:label="path2849" />
    <path
       style="fill:#0b72ba;fill-opacity:1;stroke:#000000;stroke-width:0.377953;stroke-opacity:1"
       d="m 293.93459,144.36949 45.35282,-20.52446 20.39226,1.25778 -0.19862,5.36289 c 0,0 -63.36158,24.62958 -65.14921,26.61583 -1.78763,1.98626 -0.39725,-12.71204 -0.39725,-12.71204 z"
       id="path2851"
       sodipodi:nodetypes="ccccsc"
       inkscape:label="top" />
    <path
       style="fill:#c55049;fill-opacity:1;stroke:#000000;stroke-width:0.377953;stroke-opacity:1"
       d="m 359.55589,207.82078 -48.37657,20.46332 -17.76561,-1.26282 0.19862,-5.36289 c 0,0 66.02759,-29.06845 66.01284,-26.39626 z"
       id="path2851-7"
       sodipodi:nodetypes="ccccsc"
       inkscape:label="bottom" />
    <path
       style="fill:#c55049;fill-opacity:1;stroke:#000000;stroke-width:0.377953;stroke-opacity:1"
       d="m 293.59447,169.63236 c 0,0 43.66277,-18.40193 51.35812,-20.91129 7.69536,-2.50935 14.5506,-6.32211 14.5506,-6.32211 l 0.004,13.34831 c 0,0 -33.95993,13.7178 -38.81135,16.39445 -4.85142,2.67664 -27.02752,10.43817 -27.02752,10.43817 z"
       id="path2875"
       sodipodi:nodetypes="csccscc"
       inkscape:label="mid-top" />
    <path
       style="fill:#0b72ba;fill-opacity:1;stroke:#000000;stroke-width:0.377953;stroke-opacity:1"
       d="m 293.59616,195.8412 c 0,0 43.66277,-18.40193 51.35812,-20.91129 7.69536,-2.50935 14.61678,-6.32211 14.61678,-6.32211 l -0.0625,13.34831 c 0,0 -33.95993,13.7178 -38.81135,16.39445 -4.85142,2.67664 -26.96134,10.50436 -26.96134,10.50436 z"
       id="path2875-5"
       sodipodi:nodetypes="csccscc"
       inkscape:label="mid-bottom" />
    <path
       style="fill:#000000;fill-opacity:1;stroke:#000000;stroke-width:0.377953;stroke-opacity:1"
       d="m 321.80837,85.521131 c 0,0 -1.94899,-5.161506 -0.54533,-6.214252 1.40366,-1.052747 3.50916,-3.158239 5.96556,-2.456408 2.45641,0.701831 4.91282,2.105492 4.91282,3.860069 0,1.754577 0.0113,3.974934 -0.6905,4.501307 -0.33796,0.253473 -2.49551,-0.119897 -4.7361,-0.103963 -2.41233,0.01716 -4.90645,0.413247 -4.90645,0.413247 z"
       id="path1467"
       sodipodi:nodetypes="csssssc" />
    <g
       id="g4918"
       inkscape:label="top-circle">
      <path
         style="fill:#dadce1;fill-opacity:1;stroke:#000000;stroke-width:0.377953;stroke-opacity:1"
         d="m 326.2616,85.13839 c 0,0 -10.73431,0.429373 -13.37188,2.208201 -2.63757,1.778828 -6.80862,3.741673 -8.52611,5.888534 -1.71749,2.146861 -6.01121,6.563262 -6.74728,8.035395 -0.73606,1.47213 -2.14686,3.74167 -2.2082,4.29372 -0.0613,0.55205 -0.24535,0.79741 -1.34945,1.16544 -1.1041,0.36804 -1.53348,0.61339 -2.5149,2.39222 -0.98142,1.77883 -0.85874,2.02418 -0.85874,2.02418 0,0 -2.69891,0.12268 -3.18962,0.55205 -0.49072,0.42938 -2.5149,2.14686 -2.69892,3.18963 -0.18401,1.04276 -0.85874,2.33087 0,3.68033 0.85875,1.34946 1.65615,2.45356 2.88293,3.12828 1.22678,0.67473 1.77883,2.2082 1.53347,2.69892 -0.24535,0.49071 -0.36803,3.92568 0.73607,4.90711 1.1041,0.98142 1.90151,2.26954 2.69891,2.69891 0.79741,0.42937 0.92009,-6.37925 0.92009,-6.37925 0,0 19.75112,-2.51489 23.00208,-2.39221 3.25096,0.12267 15.58008,-0.12268 16.19347,-0.0613 0.61339,0.0613 26.19171,1.47213 26.74376,2.08552 0.55205,0.61339 0.12268,7.7287 0.12268,7.7287 0,0 3.55766,-2.94427 3.98703,-4.10971 0.42937,-1.16543 0.98142,-4.78443 0.98142,-5.70451 0,-0.92009 3.25096,-2.26954 3.61899,-2.88293 0.36804,-0.61339 0.92009,-4.17105 0.49072,-5.58184 -0.42938,-1.4108 -3.12829,-3.74167 -4.17105,-3.80301 -1.04276,-0.0613 -1.53347,-0.0613 -1.77883,0 -0.24535,0.0613 -0.61339,-2.14686 -0.61339,-2.14686 0,0 -0.7974,-0.79741 -1.9015,-1.47214 -1.1041,-0.67473 -2.69891,-2.88293 -3.18962,-4.47774 -0.49072,-1.59481 -7.66737,-9.752882 -9.69155,-11.102337 -2.02418,-1.349456 -7.97406,-4.355062 -9.69155,-5.02979 -1.71749,-0.674728 -5.5205,-1.288117 -6.13389,-1.410795 -0.61339,-0.122678 -5.27514,-0.122678 -5.27514,-0.122678 z"
         id="path1385" />
      <path
         style="fill:none;fill-opacity:1;stroke:#000000;stroke-width:0.377953;stroke-opacity:1"
         d="m 289.24076,123.13392 c 0,0 25.7562,-5.50935 37.87676,-5.09614 12.12057,0.4132 23.00153,1.51507 26.58261,2.20374 3.58107,0.68866 10.74323,2.61694 10.74323,2.61694 h 0.13773"
         id="path2601" />
      <path
         style="fill:none;fill-opacity:1;stroke:#000000;stroke-width:0.377953;stroke-opacity:1"
         d="m 290.89356,111.15109 c 0,0 23.13926,-3.30561 29.47501,-3.16787 6.33575,0.13773 21.89966,0.13773 24.79207,0.68866 2.89241,0.55094 17.35444,2.47921 17.35444,2.47921"
         id="path2603" />
      <path
         style="fill:none;fill-opacity:1;stroke:#000000;stroke-width:0.377953;stroke-opacity:1"
         d="m 295.43877,106.05494 c 0,0 18.59405,-3.03014 25.20527,-2.75467 6.61122,0.27547 19.28272,0 21.07326,0.27547 1.79053,0.27547 17.49217,2.89241 17.49217,2.89241"
         id="path2605" />
      <path
         style="fill:none;fill-opacity:1;stroke:#000000;stroke-width:0.377953;stroke-opacity:1"
         d="m 307.97254,90.491037 c 0,0 10.33003,-1.101869 11.29416,-1.101869 0.96414,0 0.96414,0 0.96414,0"
         id="path2607" />
      <path
         style="fill:none;fill-opacity:1;stroke:#000000;stroke-width:0.377953;stroke-opacity:1"
         d="m 334.83061,89.251434 c 0,0 7.02442,0.137734 7.85082,0.275467 0.8264,0.137734 0.8264,0.137734 0.8264,0.137734"
         id="path2609" />
      <path
         style="fill:none;fill-opacity:1;stroke:#000000;stroke-width:0.377953;stroke-opacity:1"
         d="m 337.58528,93.107977 c 0,0 11.4319,0.413201 12.2583,1.10187 0.82641,0.688668 0.82641,0.688668 0.82641,0.688668"
         id="path2611" />
      <path
         style="fill:none;fill-opacity:1;stroke:#000000;stroke-width:0.377953;stroke-opacity:1"
         d="m 339.23809,97.102255 c 0,0 13.77337,1.101869 14.7375,1.51507 0.96414,0.413201 0.96414,0.413201 0.96414,0.413201"
         id="path2613" />
      <path
         style="fill:none;fill-opacity:1;stroke:#000000;stroke-width:0.377953;stroke-opacity:1"
         d="m 342.1305,100.68333 c 0,0 14.18657,1.37734 14.7375,2.06601"
         id="path2615" />
      <path
         style="fill:none;fill-opacity:1;stroke:#000000;stroke-width:0.377953;stroke-opacity:1"
         d="m 296.81611,103.0248 c 0,0 10.46776,-2.4792 13.9111,-2.34147 3.44335,0.13773 3.44335,0.13773 3.44335,0.13773"
         id="path2617" />
      <path
         style="fill:none;fill-opacity:1;stroke:#000000;stroke-width:0.377953;stroke-opacity:1"
         d="m 300.53492,98.479591 c 0,0 12.94697,-1.239603 13.77337,-0.964135 0.8264,0.275467 0.8264,0.275467 0.8264,0.275467"
         id="path2619" />
      <path
         style="fill:none;fill-opacity:1;stroke:#000000;stroke-width:0.377953;stroke-opacity:1"
         d="m 303.01413,94.760782 c 0,0 11.15643,-1.652805 11.98283,-1.515071 0.8264,0.137734 0.8264,0.137734 0.8264,0.137734"
         id="path2621" />
      <path
         style="fill:none;fill-opacity:1;stroke:#000000;stroke-width:0.377953;stroke-opacity:1"
         d="m 284.60457,115.57232 c 0,0 7.3134,-2.67814 13.90576,-3.19317 6.59236,-0.51503 6.69537,-0.51503 6.69537,-0.51503"
         id="path2623" />
      <path
         style="fill:none;fill-opacity:1;stroke:#000000;stroke-width:0.377953;stroke-opacity:1"
         d="m 285.53162,118.45648 c 0,0 8.85849,-3.09017 11.63964,-3.09017 2.78115,0 2.78115,0 2.78115,0"
         id="path2625" />
      <path
         style="fill:none;fill-opacity:1;stroke:#000000;stroke-width:0.377953;stroke-opacity:1"
         d="m 287.17971,120.72261 8.13745,-3.29618"
         id="path2627" />
      <path
         style="fill:none;fill-opacity:1;stroke:#000000;stroke-width:0.377953;stroke-opacity:1"
         d="m 347.12899,112.58516 c 0,0 18.33501,2.57514 20.0861,3.09017 1.7511,0.51503 1.7511,0.51503 1.7511,0.51503"
         id="path2631" />
      <path
         style="fill:none;fill-opacity:1;stroke:#000000;stroke-width:0.377953;stroke-opacity:1"
         d="m 356.09048,117.32342 c 0,0 9.0645,2.16312 9.78554,3.09017 0.72104,0.92705 0.72104,0.92705 0.72104,0.92705"
         id="path2633" />
      <path
         style="fill:none;fill-opacity:1;stroke:#000000;stroke-width:0.377953;stroke-opacity:1"
         d="m 356.60551,115.36631 c 0,0 10.50658,2.26613 11.12461,2.88416 0.61803,0.61803 0.61803,0.61803 0.61803,0.61803"
         id="path2635" />
    </g>
    <g
       id="g4938"
       inkscape:label="bottom-circle">
      <path
         style="fill:#dadce1;fill-opacity:1;stroke:#000000;stroke-width:0.377953;stroke-opacity:1"
         d="m 326.30726,267.26413 c 0,0 -10.73431,-0.42937 -13.37188,-2.2082 -2.63757,-1.77883 -6.80862,-3.74167 -8.52611,-5.88854 -1.71749,-2.14686 -6.01121,-6.56326 -6.74728,-8.03539 -0.73606,-1.47213 -2.14686,-3.74167 -2.2082,-4.29372 -0.0613,-0.55205 -0.24535,-0.79741 -1.34945,-1.16544 -1.1041,-0.36804 -1.53348,-0.61339 -2.5149,-2.39222 -0.98142,-1.77883 -0.85874,-2.02418 -0.85874,-2.02418 0,0 -2.69891,-0.12268 -3.18962,-0.55205 -0.49072,-0.42938 -2.5149,-2.14686 -2.69892,-3.18963 -0.18401,-1.04275 -0.85874,-2.33086 0,-3.68032 0.85875,-1.34946 1.65615,-2.45356 2.88293,-3.12828 1.22678,-0.67473 1.77883,-2.2082 1.53347,-2.69892 -0.24535,-0.49071 -0.36803,-3.92568 0.73607,-4.90711 1.1041,-0.98142 1.90151,-2.26954 2.69891,-2.69891 0.79741,-0.42937 0.92009,6.37925 0.92009,6.37925 0,0 19.75112,2.51489 23.00208,2.39221 3.25096,-0.12267 15.58008,0.12268 16.19347,0.0613 0.61339,-0.0613 26.19171,-1.47213 26.74376,-2.08552 0.55205,-0.61339 0.12268,-7.7287 0.12268,-7.7287 0,0 3.55766,2.94427 3.98703,4.10971 0.42937,1.16543 0.98142,4.78443 0.98142,5.70451 0,0.92009 3.25096,2.26954 3.61899,2.88293 0.36804,0.61339 0.92009,4.17105 0.49072,5.58183 -0.42938,1.4108 -3.12829,3.74167 -4.17105,3.80301 -1.04276,0.0613 -1.53347,0.0613 -1.77883,0 -0.24535,-0.0613 -0.61339,2.14686 -0.61339,2.14686 0,0 -0.7974,0.79741 -1.9015,1.47214 -1.1041,0.67473 -2.69891,2.88293 -3.18962,4.47774 -0.49072,1.59481 -7.66737,9.75288 -9.69155,11.10234 -2.02418,1.34945 -7.97406,4.35506 -9.69155,5.02979 -1.71749,0.67473 -5.5205,1.28811 -6.13389,1.41079 -0.61339,0.12268 -5.27514,0.12268 -5.27514,0.12268 z"
         id="path1385-8" />
      <path
         style="fill:none;fill-opacity:1;stroke:#000000;stroke-width:0.377953;stroke-opacity:1"
         d="m 364.63166,229.4152 c 0,0 -25.7562,5.50935 -37.87676,5.09614 -12.12057,-0.4132 -23.00153,-1.51507 -26.58261,-2.20374 -3.58107,-0.68866 -10.74323,-2.61694 -10.74323,-2.61694 h -0.13773"
         id="path2601-5" />
      <path
         style="fill:none;fill-opacity:1;stroke:#000000;stroke-width:0.377953;stroke-opacity:1"
         d="m 362.97886,241.39803 c 0,0 -23.13926,3.30561 -29.47501,3.16787 -6.33575,-0.13773 -21.89966,-0.13773 -24.79207,-0.68866 -2.89241,-0.55094 -17.35444,-2.47921 -17.35444,-2.47921"
         id="path2603-8" />
      <path
         style="fill:none;fill-opacity:1;stroke:#000000;stroke-width:0.377953;stroke-opacity:1"
         d="m 358.43365,246.49418 c 0,0 -18.59405,3.03014 -25.20527,2.75467 -6.61122,-0.27547 -19.28272,0 -21.07326,-0.27547 -1.79053,-0.27547 -17.49217,-2.89241 -17.49217,-2.89241"
         id="path2605-2" />
      <path
         style="fill:none;fill-opacity:1;stroke:#000000;stroke-width:0.377953;stroke-opacity:1"
         d="m 345.89988,262.05808 c 0,0 -10.33003,1.10187 -11.29416,1.10187 -0.96414,0 -0.96414,0 -0.96414,0"
         id="path2607-9" />
      <path
         style="fill:none;fill-opacity:1;stroke:#000000;stroke-width:0.377953;stroke-opacity:1"
         d="m 319.04181,263.29769 c 0,0 -7.02442,-0.13774 -7.85082,-0.27547 -0.8264,-0.13773 -0.8264,-0.13773 -0.8264,-0.13773"
         id="path2609-8" />
      <path
         style="fill:none;fill-opacity:1;stroke:#000000;stroke-width:0.377953;stroke-opacity:1"
         d="m 316.28714,259.44114 c 0,0 -11.4319,-0.4132 -12.2583,-1.10187 -0.82641,-0.68866 -0.82641,-0.68866 -0.82641,-0.68866"
         id="path2611-2" />
      <path
         style="fill:none;fill-opacity:1;stroke:#000000;stroke-width:0.377953;stroke-opacity:1"
         d="m 314.63433,255.44687 c 0,0 -13.77337,-1.10187 -14.7375,-1.51507 -0.96414,-0.4132 -0.96414,-0.4132 -0.96414,-0.4132"
         id="path2613-0" />
      <path
         style="fill:none;fill-opacity:1;stroke:#000000;stroke-width:0.377953;stroke-opacity:1"
         d="m 311.74192,251.86579 c 0,0 -14.18657,-1.37734 -14.7375,-2.06601"
         id="path2615-7" />
      <path
         style="fill:none;fill-opacity:1;stroke:#000000;stroke-width:0.377953;stroke-opacity:1"
         d="m 357.05631,249.52432 c 0,0 -10.46776,2.4792 -13.9111,2.34147 -3.44335,-0.13773 -3.44335,-0.13773 -3.44335,-0.13773"
         id="path2617-4" />
      <path
         style="fill:none;fill-opacity:1;stroke:#000000;stroke-width:0.377953;stroke-opacity:1"
         d="m 353.3375,254.06953 c 0,0 -12.94697,1.2396 -13.77337,0.96414 -0.8264,-0.27547 -0.8264,-0.27547 -0.8264,-0.27547"
         id="path2619-8" />
      <path
         style="fill:none;fill-opacity:1;stroke:#000000;stroke-width:0.377953;stroke-opacity:1"
         d="m 350.85829,257.78834 c 0,0 -11.15643,1.6528 -11.98283,1.51507 -0.8264,-0.13773 -0.8264,-0.13773 -0.8264,-0.13773"
         id="path2621-5" />
      <path
         style="fill:none;fill-opacity:1;stroke:#000000;stroke-width:0.377953;stroke-opacity:1"
         d="m 369.26785,236.9768 c 0,0 -7.3134,2.67814 -13.90576,3.19317 -6.59236,0.51503 -6.69537,0.51503 -6.69537,0.51503"
         id="path2623-8" />
      <path
         style="fill:none;fill-opacity:1;stroke:#000000;stroke-width:0.377953;stroke-opacity:1"
         d="m 368.3408,234.09264 c 0,0 -8.85849,3.09017 -11.63964,3.09017 -2.78115,0 -2.78115,0 -2.78115,0"
         id="path2625-3" />
      <path
         style="fill:none;fill-opacity:1;stroke:#000000;stroke-width:0.377953;stroke-opacity:1"
         d="m 366.69271,231.82651 -8.13745,3.29618"
         id="path2627-0" />
      <path
         style="fill:none;fill-opacity:1;stroke:#000000;stroke-width:0.377953;stroke-opacity:1"
         d="m 306.74343,239.96396 c 0,0 -18.33501,-2.57514 -20.0861,-3.09017 -1.7511,-0.51503 -1.7511,-0.51503 -1.7511,-0.51503"
         id="path2631-6" />
      <path
         style="fill:none;fill-opacity:1;stroke:#000000;stroke-width:0.377953;stroke-opacity:1"
         d="m 297.78194,235.2257 c 0,0 -9.0645,-2.16312 -9.78554,-3.09017 -0.72104,-0.92705 -0.72104,-0.92705 -0.72104,-0.92705"
         id="path2633-2" />
      <path
         style="fill:none;fill-opacity:1;stroke:#000000;stroke-width:0.377953;stroke-opacity:1"
         d="m 297.26691,237.18281 c 0,0 -10.50658,-2.26613 -11.12461,-2.88416 -0.61803,-0.61803 -0.61803,-0.61803 -0.61803,-0.61803"
         id="path2635-2" />
    </g>
    <text
       xml:space="preserve"
       style="font-style:normal;font-variant:normal;font-weight:normal;font-stretch:normal;font-size:12px;font-family:'Devanagari MT';-inkscape-font-specification:'Devanagari MT, Normal';font-variant-ligatures:normal;font-variant-caps:normal;font-variant-numeric:normal;font-variant-east-asian:normal;fill:none;fill-opacity:1;stroke:#000000;stroke-width:1.178;stroke-dasharray:none;stroke-opacity:1"
       x="148.85934"
       y="315.16315"
       id="text5085"><tspan
         sodipodi:role="line"
         id="tspan5083"
         x="148.85934"
         y="315.16315"
         style="font-style:normal;font-variant:normal;font-weight:normal;font-stretch:normal;font-size:12px;font-family:'Big Caslon';-inkscape-font-specification:'Big Caslon';font-variant-ligatures:normal;font-variant-caps:normal;font-variant-numeric:normal;font-variant-east-asian:normal" /></text>
  </g>
</svg>
